<?xml version="1.0" encoding="UTF-8"?>
<svg id="Layer_1" data-name="Layer 1" xmlns="http://www.w3.org/2000/svg" version="1.1" viewBox="0 0 24 24">
  <defs>
    <style>
      .cls-1 {
        fill: #b71515;
        stroke-width: 0px;
      }
    </style>
  </defs>
  <path class="cls-1" d="M13.1,16.2h-1.9c-1.3,0-2.4-1.1-2.4-2.5s.3-.8.8-.8.8.3.8.8.4,1,.9,1h1.9c.4,0,.7-.4.7-.8s-.1-.6-.5-.7l-3-1c-.6-.2-1.5-.7-1.5-2.2s1-2.3,2.2-2.3h1.9c1.3,0,2.4,1.1,2.4,2.5s-.3.8-.8.8-.8-.3-.8-.8-.4-1-.9-1h-1.9c-.4,0-.7.3-.7.8s.1.6.5.7l3,1.1c.6.2,1.5.7,1.5,2.2s-1,2.3-2.2,2.3Z"/>
  <path class="cls-1" d="M12,17.2c-.4,0-.8-.3-.8-.8V7.5c0-.4.3-.8.8-.8s.8.3.8.8v9c0,.4-.3.8-.8.8Z"/>
  <path class="cls-1" d="M12,22.8c-5.9,0-10.8-4.8-10.8-10.8S6.1,1.2,12,1.2s.8.3.8.8-.3.8-.8.8C6.9,2.8,2.8,6.9,2.8,12s4.2,9.2,9.2,9.2,9.2-4.1,9.2-9.2.3-.8.8-.8.8.3.8.8c0,5.9-4.8,10.8-10.8,10.8Z"/>
  <path class="cls-1" d="M22,6.8c-.4,0-.8-.3-.8-.8v-3.2h-3.2c-.4,0-.8-.3-.8-.8s.3-.8.8-.8h4c.4,0,.8.3.8.8v4c0,.4-.3.8-.8.8Z"/>
  <path class="cls-1" d="M17,7.8c-.2,0-.4,0-.5-.2-.3-.3-.3-.8,0-1.1l5-5c.3-.3.8-.3,1.1,0,.3.3.3.8,0,1.1l-5,5c-.1.1-.3.2-.5.2Z"/>
</svg>